<svg xmlns="http://www.w3.org/2000/svg" width="200" height="50" viewBox="0 0 200 50">
  <path fill="#00c853" d="M30,8.1c-3.1,0-5.5,2.5-5.5,5.5c0,3.1,2.5,5.5,5.5,5.5c3.1,0,5.5-2.5,5.5-5.5C35.5,10.6,33.1,8.1,30,8.1z"/>
  <path fill="#00c853" d="M51.3,17.9c0,0-3.4-1.5-5.8-2.2c-2.2-0.7-3.5-1.2-3.5-1.2v28.8h11.3c10.6,0,16.7-6.9,16.7-15.3 c0-10.8-8.6-15.6-18.2-15.6h-24v5.9l3.2,1.2c0.7,0.3,1.5,0.4,1.5,1.5v28.6h9.3V17.9z"/>
  <path fill="#00c853" d="M134.5,28.8c0-7.9-6.1-14-16.9-14c-10.9,0-17.2,6.5-17.2,15.3v12.5h9.4V31.5c0-5.3,2.9-8.2,7.8-8.2 c4.7,0,7.5,2.5,7.5,7v12.2h9.3V28.8z"/>
  <path fill="#00c853" d="M162.7,15.8c-9,0-17.2,5.2-17.2,16.1v10.6h9.3V32.5c0-5.4,2.8-8.2,8-8.2c1.7,0,3.3,0.2,4.7,0.6l1.5-8.7 C167.1,16,164.8,15.8,162.7,15.8z"/>
  <path fill="#00c853" d="M190.7,15.8c-10.1,0-18.3,6.4-18.3,16.2c0,9.7,8.2,16.1,18.3,16.1c10.1,0,18.3-6.4,18.3-16.1 C209,22.2,200.9,15.8,190.7,15.8z M190.7,39.5c-4.7,0-8.8-3.1-8.8-7.5c0-4.5,4.1-7.5,8.8-7.5c4.7,0,8.8,3.1,8.8,7.5 C199.5,36.4,195.5,39.5,190.7,39.5z"/>
</svg>