<svg xmlns="http://www.w3.org/2000/svg" viewBox="0 0 200 200">
  <path fill="#00c853" d="M146.5,53.5c-9.9-9.9-23.5-16-38.5-16s-28.6,6.1-38.5,16c-9.9,9.9-16,23.5-16,38.5s6.1,28.6,16,38.5 c9.9,9.9,23.5,16,38.5,16s28.6-6.1,38.5-16c9.9-9.9,16-23.5,16-38.5S156.4,63.4,146.5,53.5z M84.2,131.1c-7.2-7.2-11.7-17.2-11.7-28.1 c0-10.9,4.5-20.9,11.7-28.1c6.5-6.5,15.1-10.6,24.6-11.6c-2,8.3-8.1,15-16.2,17.9c-5.8,2-10.1,7.2-10.1,13.8c0,8,6.4,14.4,14.4,14.4 c8,0,14.4-6.4,14.4-14.4c0-6.5-4.4-11.8-10.1-13.8c-8.1-2.9-14.2-9.6-16.2-17.9c9.5,0.9,18,5,24.6,11.6c7.2,7.2,11.7,17.2,11.7,28.1 c0,10.9-4.5,20.9-11.7,28.1c-7.2,7.2-17.2,11.7-28.1,11.7S91.4,138.3,84.2,131.1z"/>
</svg>